<svg width="633" height="357" viewBox="0 0 633 357" fill="none" xmlns="http://www.w3.org/2000/svg">
<g clip-path="url(#clip0_9235_587)">
<rect width="633" height="357" rx="42" fill="white"/>
<path d="M656.634 -36.2092L683.139 -25.5383C684.969 -24.8013 687.031 -24.9042 688.779 -25.8199C693.264 -28.169 698.64 -24.9162 698.64 -19.8536V40.3004C698.64 47.4622 696.378 54.4411 692.178 60.2417L686.024 68.7399L642.252 126.416C637.535 132.632 635.099 140.28 635.353 148.079L638.323 239.162C638.482 244.038 639.689 248.824 641.862 253.192L668.798 307.361C680.037 329.964 663.597 356.5 638.354 356.5H595.307C586.878 356.5 581.275 347.778 584.78 340.112C586.131 337.157 586.177 333.77 584.908 330.779L567.021 288.615C563.587 280.521 557.151 274.072 549.064 270.621L533.234 263.867C522.841 259.433 515.33 250.125 513.191 239.03L507.976 211.977C507.329 208.62 507.192 205.185 507.57 201.787L510.634 174.204C512.084 161.158 520.913 150.112 533.318 145.824L547.27 141.001C556.43 137.835 563.804 130.91 567.537 121.966L580.847 90.085C585.028 80.0685 584.176 68.6575 578.553 59.3732L574.312 52.3694C566.755 39.8928 567.999 23.9866 577.403 12.8363L600.736 -14.8296C602.717 -17.1785 605.007 -19.248 607.544 -20.9816L624.753 -32.7412C634.133 -39.1509 646.095 -40.4521 656.634 -36.2092Z" fill="#E4F51F"/>
<path d="M597.304 379.739L588.534 406.932C587.928 408.811 588.176 410.86 589.213 412.539C591.873 416.846 589.009 422.439 583.959 422.797L523.955 427.049C516.812 427.555 509.69 425.793 503.607 422.013L494.695 416.475L434.069 376.89C427.535 372.624 419.734 370.735 411.973 371.54L321.328 380.941C316.474 381.445 311.787 382.987 307.582 385.463L255.453 416.161C233.702 428.97 206.07 414.446 204.285 389.267L201.242 346.328C200.646 337.919 208.95 331.714 216.845 334.668C219.888 335.807 223.27 335.614 226.164 334.136L266.958 313.313C274.789 309.315 280.767 302.44 283.637 294.129L289.255 277.861C292.944 267.181 301.697 259.031 312.613 256.113L339.23 248.999C342.533 248.116 345.95 247.736 349.366 247.873L377.097 248.98C390.212 249.503 401.854 257.53 407.009 269.601L412.806 283.177C416.612 292.09 424.041 298.956 433.227 302.048L465.968 313.07C476.255 316.533 487.578 314.877 496.441 308.611L503.128 303.885C515.039 295.466 530.993 295.582 542.78 304.174L572.026 325.493C574.509 327.303 576.736 329.441 578.644 331.849L591.591 348.184C598.648 357.087 600.791 368.927 597.304 379.739Z" fill="#4600B8" fill-opacity="0.6"/>
<path d="M679.634 -36.2092L706.139 -25.5383C707.969 -24.8013 710.031 -24.9042 711.779 -25.8199C716.264 -28.169 721.64 -24.9162 721.64 -19.8536V40.3004C721.64 47.4622 719.378 54.4411 715.178 60.2417L709.024 68.7399L665.252 126.416C660.535 132.632 658.099 140.28 658.353 148.079L661.323 239.162C661.482 244.038 662.689 248.824 664.862 253.192L691.798 307.361C703.037 329.964 686.597 356.5 661.354 356.5H618.307C609.878 356.5 604.275 347.778 607.78 340.112C609.131 337.157 609.177 333.77 607.908 330.779L590.021 288.615C586.587 280.521 580.151 274.072 572.064 270.621L556.234 263.867C545.841 259.433 538.33 250.125 536.191 239.03L530.976 211.977C530.329 208.62 530.192 205.185 530.57 201.787L533.634 174.204C535.084 161.158 543.913 150.112 556.318 145.824L570.27 141.001C579.43 137.835 586.804 130.91 590.537 121.966L603.847 90.085C608.028 80.0685 607.176 68.6575 601.553 59.3732L597.312 52.3694C589.755 39.8928 590.999 23.9866 600.403 12.8363L623.736 -14.8296C625.717 -17.1785 628.007 -19.248 630.544 -20.9816L647.753 -32.7412C657.133 -39.1509 669.095 -40.4521 679.634 -36.2092Z" fill="#5D00B8"/>
<path d="M611.304 396.739L602.534 423.932C601.928 425.811 602.176 427.86 603.213 429.539C605.873 433.846 603.009 439.439 597.959 439.797L537.955 444.049C530.812 444.555 523.69 442.793 517.607 439.013L508.695 433.475L448.069 393.89C441.535 389.624 433.734 387.735 425.973 388.54L335.328 397.941C330.474 398.445 325.787 399.987 321.582 402.463L269.453 433.161C247.702 445.97 220.07 431.446 218.285 406.267L215.242 363.328C214.646 354.919 222.95 348.714 230.845 351.668C233.888 352.807 237.27 352.614 240.164 351.136L280.958 330.313C288.789 326.315 294.767 319.44 297.637 311.129L303.255 294.861C306.944 284.181 315.697 276.031 326.613 273.113L353.23 265.999C356.533 265.116 359.95 264.736 363.366 264.873L391.097 265.98C404.212 266.503 415.854 274.53 421.009 286.601L426.806 300.177C430.612 309.09 438.041 315.956 447.227 319.048L479.968 330.07C490.255 333.533 501.578 331.877 510.441 325.611L517.128 320.885C529.039 312.466 544.993 312.582 556.78 321.174L586.026 342.493C588.509 344.303 590.736 346.441 592.644 348.849L605.591 365.184C612.648 374.087 614.791 385.927 611.304 396.739Z" fill="#5D00B8"/>
<circle cx="55" cy="47" r="6" fill="#F3F3F3"/>
<circle cx="49" cy="295" r="6" fill="#F3F3F3"/>
<circle cx="209" cy="263" r="6" fill="#F3F3F3"/>
<circle cx="139" cy="334" r="6" fill="#F3F3F3"/>
<circle cx="139" cy="20" r="6" fill="#F3F3F3"/>
<circle cx="479" cy="20" r="6" fill="#F3F3F3"/>
<circle cx="455" cy="237" r="6" fill="#F3F3F3"/>
<circle cx="38.5" cy="98.5" r="9.5" fill="#5D00B8"/>
<line x1="38.5" y1="107" x2="38.5" y2="247" stroke="#5D00B8"/>
</g>
<defs>
<clipPath id="clip0_9235_587">
<rect width="633" height="357" rx="42" fill="white"/>
</clipPath>
</defs>
</svg>
